<svg width="43" height="40" viewBox="0 0 43 40" fill="none" xmlns="http://www.w3.org/2000/svg">
<path d="M20.8656 3.94154C20.679 3.50122 20.3689 2.88945 19.913 2.22803C19.4121 1.50142 18.7292 0.706018 17.8297 0.00732843C18.2624 -0.0114222 18.6767 0.00695636 19.0599 0.0493587C19.3428 0.325854 19.594 0.626703 19.8132 0.935564C20.4239 1.79562 20.7684 2.69177 20.859 3.23378C20.8634 3.2599 20.8729 3.28426 20.8866 3.30617C20.9004 3.28426 20.9099 3.2599 20.9143 3.23378C21.0048 2.69177 21.3494 1.79562 21.96 0.935564C22.1793 0.626703 22.4305 0.325854 22.7134 0.0493587C23.0966 0.00695636 23.5109 -0.0114222 23.9435 0.00732843C23.0441 0.706018 22.3612 1.50142 21.8603 2.22803C21.4044 2.88945 21.0943 3.50122 20.9077 3.94154V4.0432C20.9009 4.02637 20.8939 4.00923 20.8866 3.99181C20.8794 4.00923 20.8724 4.02637 20.8656 4.0432V3.94154Z" fill="#15447A"></path>
<path d="M20.8866 0.488128C20.6166 0.376188 20.2509 0.26047 19.8174 0.169813C19.9697 0.346018 20.1101 0.526585 20.239 0.708042C20.4888 1.05985 20.6976 1.41894 20.8656 1.7622V1.84983C20.8725 1.83514 20.8795 1.82041 20.8866 1.80565C20.8937 1.82041 20.9008 1.83514 20.9077 1.84983V1.7622C21.0757 1.41894 21.2845 1.05985 21.5343 0.708042C21.6631 0.526585 21.8036 0.346018 21.9558 0.169813C21.5224 0.26047 21.1566 0.376188 20.8866 0.488128Z" fill="#15447A"></path>
<path d="M19.4838 2.4507C18.9362 1.65628 18.1698 0.787596 17.1409 0.0686505C16.9164 0.0991804 16.689 0.140733 16.4602 0.194957C17.2448 0.595443 17.8878 1.20013 18.4421 1.81862C18.7426 2.15398 19.0249 2.50286 19.2907 2.83128C19.4034 2.97054 19.5132 3.10621 19.62 3.23552C19.8913 3.56377 20.1439 3.85131 20.3901 4.07659C20.2158 3.66822 19.9224 3.08691 19.4838 2.4507Z" fill="#15447A"></path>
<path d="M18.0474 2.0849C17.3976 1.35983 16.6762 0.718104 15.7978 0.388012C15.507 0.489362 15.2165 0.613521 14.9296 0.763824C15.7125 0.911239 16.3901 1.33218 16.9767 1.8093C17.4002 2.15367 17.7942 2.54334 18.1512 2.89637C18.2876 3.03122 18.4186 3.16081 18.5438 3.28039C18.7746 3.50097 18.9854 3.6882 19.1818 3.82709C19.1922 3.83444 19.2025 3.84162 19.2127 3.84862C19.334 3.86671 19.4603 3.89423 19.593 3.93139C19.4662 3.79025 19.34 3.64122 19.2137 3.48831C19.1009 3.35188 18.9879 3.21217 18.8734 3.07063C18.6107 2.74596 18.3401 2.4116 18.0474 2.0849Z" fill="#15447A"></path>
<path d="M20.8866 25.946C20.8938 25.9715 20.9008 25.9972 20.9077 26.0228C20.9077 25.9739 20.9077 25.9236 20.9077 25.8722C21.0116 25.5155 21.1416 25.1652 21.2852 24.8208C21.463 24.3945 21.6631 23.9741 21.8622 23.5607L21.9248 23.4307C22.1033 23.0607 22.2789 22.6964 22.4383 22.3326C23.1276 20.7602 23.488 19.2567 22.3835 17.6403C21.935 17.7788 21.4037 17.84 20.8866 17.8445C20.3696 17.84 19.8383 17.7788 19.3897 17.6403C18.2853 19.2567 18.6457 20.7602 19.3349 22.3326C19.4944 22.6964 19.67 23.0607 19.8485 23.4307L19.9111 23.5607C20.1101 23.9741 20.3103 24.3945 20.4881 24.8208C20.6317 25.1652 20.7617 25.5155 20.8656 25.8722C20.8656 25.9236 20.8656 25.9739 20.8656 26.0228C20.8725 25.9972 20.8795 25.9715 20.8866 25.946Z" fill="#15447A"></path>
<path d="M18.93 17.4629C17.7438 19.2354 18.1667 20.8879 18.8676 22.4868C19.0301 22.8577 19.2091 23.2287 19.387 23.5979L19.4497 23.7279C19.6488 24.1413 19.8447 24.553 20.0179 24.9684C20.2114 25.4323 20.375 25.8971 20.4817 26.367C20.1825 25.8598 19.8485 25.4226 19.4876 25.0361C19.3459 24.7597 19.1845 24.4807 19.0146 24.2011C18.8445 23.9212 18.6658 23.6405 18.4862 23.3585C18.1121 22.771 17.7341 22.1773 17.4219 21.5716C16.9624 20.6799 16.6695 19.803 16.761 18.9571C16.8413 18.2141 17.2209 17.4725 18.1005 16.7508C18.2655 17.0491 18.5591 17.2862 18.93 17.4629Z" fill="#15447A"></path>
<path d="M16.2631 18.9166C16.3625 17.998 16.8616 17.1085 17.9575 16.2776C17.9525 16.2164 17.952 16.1534 17.9562 16.0887C17.9913 16.0495 18.0705 16.0016 18.2483 15.9524C18.425 15.9036 18.6383 15.869 18.8849 15.829C18.9662 15.8158 19.051 15.802 19.1394 15.787C19.4817 15.7286 19.8613 15.6526 20.1995 15.5139C20.4584 15.4077 20.7011 15.2615 20.8866 15.053C21.0722 15.2615 21.3148 15.4077 21.5737 15.5139C21.912 15.6526 22.2916 15.7286 22.6339 15.787C22.7223 15.802 22.8071 15.8158 22.8884 15.829C23.135 15.869 23.3482 15.9036 23.525 15.9524C23.7028 16.0016 23.782 16.0495 23.8171 16.0887C23.8213 16.1534 23.8208 16.2164 23.8158 16.2776C24.9117 17.1085 25.4108 17.998 25.5101 18.9166C25.6136 19.8726 25.2805 20.8315 24.8079 21.7486C24.4872 22.3709 24.0911 22.9931 23.7115 23.5895C23.6232 23.7282 23.5355 23.866 23.4501 24.0015C24.1568 23.4728 24.9201 23.0375 25.6981 22.5939L25.7923 22.5401C26.5863 20.7586 26.652 19.3537 26.3609 18.233C26.0143 16.8988 25.1545 15.9362 24.3335 15.1978C24.3317 15.1997 24.3299 15.2016 24.3282 15.2034C24.3243 15.2074 24.3206 15.2113 24.3169 15.2151C24.2502 15.2833 24.1896 15.3383 24.1399 15.3788C24.1126 15.401 24.0849 15.4218 24.0592 15.4392C24.0412 15.4511 24.0232 15.4623 24.0032 15.4733C23.9619 15.4968 23.9139 15.5156 23.8652 15.5277C23.8216 15.5387 23.7754 15.5472 23.7261 15.5533C23.7096 15.5483 23.6931 15.5436 23.6768 15.5391C23.4677 15.4813 23.2104 15.4396 22.9557 15.3984C22.88 15.3861 22.8042 15.3739 22.7303 15.3613C22.3932 15.3038 22.0658 15.2358 21.7874 15.1217C21.5196 15.0118 21.3109 14.8648 21.1833 14.6536L21.3406 13.7522C21.3896 13.4719 21.555 13.2162 21.8183 13.0482C21.8447 13.0313 21.8713 13.0145 21.8979 12.9975L21.9024 12.9947C22.2631 12.7653 22.6383 12.5268 23.0081 12.1529C23.1797 11.9794 23.2585 11.7533 23.2585 11.5247C22.9875 11.7503 22.6264 11.8763 22.2508 11.8763H19.5225C19.1469 11.8763 18.7858 11.7503 18.5148 11.5247C18.5148 11.7533 18.5936 11.9794 18.7652 12.1529C19.135 12.5268 19.5102 12.7653 19.8709 12.9947L19.8723 12.9956C19.8999 13.0131 19.9275 13.0307 19.955 13.0482C20.2183 13.2162 20.3837 13.4719 20.4327 13.7522L20.59 14.6536C20.4624 14.8648 20.2537 15.0118 19.9858 15.1217C19.7075 15.2358 19.3801 15.3038 19.043 15.3613C18.969 15.3739 18.8935 15.3861 18.8178 15.3984C18.5631 15.4396 18.3056 15.4813 18.0965 15.5391C18.0802 15.5436 18.0637 15.5483 18.0472 15.5533C17.9979 15.5472 17.9517 15.5387 17.9081 15.5277C17.8594 15.5156 17.8114 15.4968 17.7701 15.4733C17.7501 15.4623 17.7321 15.4511 17.7141 15.4392C17.6884 15.4218 17.6607 15.401 17.6334 15.3788C17.5837 15.3383 17.5231 15.2833 17.4564 15.2151C17.451 15.2095 17.4454 15.2038 17.4397 15.1978C16.6188 15.9362 15.759 16.8988 15.4124 18.233C15.1213 19.3537 15.187 20.7586 15.9809 22.5401L16.0752 22.5939C16.8532 23.0375 17.6165 23.4728 18.3231 24.0015C18.2378 23.866 18.1504 23.7287 18.0621 23.59C17.6825 22.9936 17.2861 22.3709 16.9654 21.7486C16.4928 20.8315 16.1597 19.8726 16.2631 18.9166Z" fill="#15447A"></path>
<path d="M17.1442 14.8391C16.2776 15.6088 15.3095 16.6562 14.9246 18.1376C14.6403 19.2321 14.6787 20.5456 15.2837 22.1377C14.6695 21.7762 14.0548 21.3883 13.46 20.9249C13.2893 20.4618 13.2071 20.0298 13.1932 19.6259C13.158 18.6076 13.5549 17.7398 14.1147 16.97C14.5566 16.3623 15.0898 15.8278 15.5887 15.3277C15.7272 15.1889 15.8633 15.0525 15.9938 14.9182C16.269 14.6348 16.522 14.3576 16.7139 14.086L16.7434 14.0866C16.8194 14.289 16.9144 14.4819 17.0264 14.6624C17.0657 14.7256 17.1053 14.7845 17.1442 14.8391Z" fill="#15447A"></path>
<path d="M16.3248 13.8054C16.443 13.6301 16.5216 13.4704 16.5598 13.3222C16.5366 13.1098 16.5356 12.8954 16.557 12.6804C16.575 12.5008 16.6027 12.2697 16.6194 12.1341L16.4737 12.0242C16.4389 11.9978 16.4047 11.9714 16.3711 11.9449C16.3586 11.9835 16.3445 12.0231 16.3287 12.0635C16.237 12.2992 16.0852 12.5791 15.8585 12.8977C15.405 13.535 14.6448 14.3372 13.4399 15.2639C11.9963 16.3743 11.519 17.4802 11.5362 18.4606C11.5399 18.6706 11.5663 18.8764 11.6116 19.0769C11.9827 19.5596 12.3744 19.9784 12.7798 20.3505C12.7294 20.1068 12.7014 19.8697 12.6934 19.6389C12.6543 18.5078 13.0979 17.5551 13.6918 16.7385C14.156 16.1001 14.7222 15.5329 15.224 15.0301C15.3589 14.895 15.4891 14.7645 15.6114 14.6386C15.9045 14.3369 16.1513 14.0628 16.3248 13.8054Z" fill="#15447A"></path>
<path d="M15.9418 11.5698C15.9393 11.6481 15.9168 11.7658 15.855 11.9247C15.7778 12.1231 15.6442 12.3731 15.433 12.6698C15.0108 13.2632 14.2856 14.0337 13.1082 14.9393C11.6668 16.048 11.0875 17.193 11.0391 18.2619C10.8608 17.9856 10.6972 17.7085 10.5477 17.4312C10.5551 17.2495 10.5758 17.0688 10.6103 16.8894C10.818 15.8098 11.5319 14.7497 12.9426 13.788C14.1496 12.9653 14.8368 12.1946 15.2349 11.6087C15.3603 11.4241 15.4566 11.2586 15.5311 11.1166C15.6513 11.2685 15.7876 11.4199 15.9418 11.5698Z" fill="#15447A"></path>
<path d="M15.1763 10.7323C15.1895 10.7034 15.2014 10.6764 15.2122 10.6514C15.0691 10.4071 14.9631 10.1639 14.8868 9.92573C14.7272 10.1279 14.5141 10.3682 14.2417 10.6392C13.6858 11.192 12.8733 11.8824 11.7384 12.6523C10.4433 13.5309 9.9209 14.6717 9.76593 15.6347C9.8776 15.967 10.0074 16.3011 10.1565 16.6359C10.4308 15.4977 11.2182 14.4118 12.6337 13.4469C13.7922 12.6572 14.4379 11.9274 14.8042 11.3883C14.9875 11.1186 15.1021 10.8948 15.1763 10.7323Z" fill="#15447A"></path>
<path d="M14.7457 9.28113C14.6537 9.46136 14.3858 9.83586 13.8648 10.354C13.3316 10.8844 12.5426 11.556 11.4304 12.3106C10.3878 13.0178 9.80243 13.8789 9.49837 14.7052C9.31625 13.9482 9.22392 13.2064 9.20508 12.494C9.48047 11.8824 10.2695 10.9397 11.9863 10.2408C13.1107 9.78304 13.9343 9.24079 14.4982 8.75727C14.5809 8.68636 14.6584 8.61638 14.7307 8.54781C14.7129 8.77674 14.7142 9.02318 14.7457 9.28113Z" fill="#15447A"></path>
<path d="M14.1468 8.4487C14.5555 8.09827 14.8009 7.79548 14.9182 7.60462C14.9687 7.44587 15.0286 7.28778 15.0975 7.1308C14.9642 7.0807 14.837 7.02705 14.7156 6.97017C14.2649 7.30262 13.4451 7.81421 11.7614 8.39538C10.8308 8.7166 10.2601 9.20065 9.93055 9.73459C9.63703 10.2102 9.52807 10.7368 9.54154 11.2426C10.044 10.7544 10.7692 10.2571 11.7738 9.84809C12.8458 9.4117 13.6225 8.89818 14.1468 8.4487Z" fill="#15447A"></path>
<path d="M15.2935 6.7317C13.7735 6.15934 13.1698 5.0903 13.1543 4.13804C13.1379 3.12654 13.7648 2.3247 14.5903 2.23372C14.9595 2.19302 15.3332 2.35509 15.8785 2.75672C16.1365 2.94677 16.4185 3.17897 16.746 3.44857L16.7834 3.47937C17.0528 3.70121 17.3505 3.94561 17.6836 4.2058C17.5394 4.29965 17.3991 4.40552 17.2583 4.51699C16.9185 4.03032 16.0085 3.53378 14.2228 3.63638C14.085 3.6443 13.9807 3.74762 13.9898 3.86715C13.999 3.98668 14.118 4.07717 14.2558 4.06925C16.108 3.96283 16.7297 4.53401 16.8788 4.8266C16.856 4.84601 16.8334 4.8655 16.811 4.88507C16.4053 4.78054 15.9117 4.75922 15.4464 4.78224C14.9242 4.80807 14.4062 4.89146 14.0364 4.99841C13.9054 5.03629 13.8346 5.15913 13.8783 5.27278C13.9219 5.38643 14.0635 5.44785 14.1945 5.40997C14.515 5.31728 14.9882 5.23943 15.4749 5.21535C15.8108 5.19874 16.1386 5.20853 16.4188 5.25088C15.9529 5.71639 15.5742 6.21568 15.2935 6.7317Z" fill="#15447A"></path>
<path d="M17.1276 3.16468C17.4266 3.4109 17.7557 3.68103 18.1277 3.96857C18.1807 3.94695 18.2347 3.92746 18.2898 3.91034C18.3548 3.89016 18.4202 3.8734 18.4865 3.86011C18.3829 3.76928 18.2786 3.67235 18.1735 3.57198C18.0371 3.44157 17.8992 3.30524 17.7588 3.16634C17.4072 2.81869 17.0392 2.45467 16.6348 2.1258C16.4211 1.95199 16.1937 1.78679 15.9544 1.64311C14.972 1.05346 13.7225 1.41373 12.9364 2.24727C11.6381 3.62385 12.0926 4.73314 12.5354 5.73214C11.9888 5.80176 11.4088 6.19549 10.8885 6.83333C11.2493 6.64382 11.624 6.50327 11.988 6.40109C12.5515 6.24289 13.0971 6.17434 13.5395 6.15969C12.938 5.55289 12.6654 4.82798 12.6543 4.14415C12.6361 3.02391 13.3392 1.9343 14.5273 1.80336C15.1275 1.7372 15.6503 2.01959 16.2021 2.42601C16.471 2.62406 16.7622 2.86384 17.0847 3.1294L17.1276 3.16468Z" fill="#15447A"></path>
<path d="M12.142 6.81384C11.7784 6.9159 11.4087 7.05821 11.0593 7.25204C10.4365 7.59754 10.0133 8.2068 9.77087 8.8765C9.71643 9.02686 9.66516 9.18134 9.6174 9.33966C10.0178 8.78977 10.6485 8.31262 11.5765 7.99229C13.0566 7.48139 13.8305 7.03321 14.2666 6.72941C14.2013 6.6895 14.1381 6.64852 14.0771 6.60657C13.6773 6.56559 12.9335 6.59164 12.142 6.81384Z" fill="#15447A"></path>
<path d="M19.9516 8.04929L19.1345 10.4972C19.3601 9.80952 19.2859 9.14556 19.1887 8.68572C18.8537 8.71511 18.6093 8.69305 18.3789 8.64203C17.7712 8.50742 17.3659 8.04049 16.9799 7.59586C16.9225 7.52974 16.8656 7.46409 16.8084 7.40013C16.73 7.3123 16.638 7.22112 16.5285 7.12114C16.7049 7.14882 16.8774 7.17413 17.0466 7.19896C18.093 7.35251 19.0141 7.48766 19.9516 8.04929Z" fill="#15447A"></path>
<path d="M19.1345 10.4972C19.1314 10.5065 19.1283 10.5158 19.1252 10.525L19.1345 10.4972Z" fill="#15447A"></path>
<path d="M22.2895 2.4507C22.8371 1.65628 23.6035 0.787596 24.6324 0.0686505C24.8569 0.0991804 25.0843 0.140733 25.3131 0.194957C24.5285 0.595443 23.8855 1.20013 23.3312 1.81862C23.0307 2.15398 22.7484 2.50286 22.4826 2.83128C22.3699 2.97054 22.2601 3.10621 22.1533 3.23552C21.882 3.56377 21.6294 3.85131 21.3832 4.07659C21.5575 3.66822 21.8509 3.08691 22.2895 2.4507Z" fill="#15447A"></path>
<path d="M23.7259 2.0849C24.3757 1.35983 25.0971 0.718104 25.9755 0.388012C26.2663 0.489362 26.5568 0.613521 26.8437 0.763824C26.0608 0.911239 25.3832 1.33218 24.7965 1.8093C24.3731 2.15367 23.9791 2.54334 23.6221 2.89637C23.4857 3.03122 23.3546 3.16081 23.2295 3.28039C22.9987 3.50097 22.7879 3.6882 22.5915 3.82709C22.5811 3.83444 22.5708 3.84162 22.5606 3.84862C22.4392 3.86671 22.3129 3.89423 22.1803 3.93139C22.3071 3.79025 22.4332 3.64122 22.5596 3.48831C22.6724 3.35188 22.7854 3.21219 22.8999 3.07065C23.1626 2.74598 23.4332 2.4116 23.7259 2.0849Z" fill="#15447A"></path>
<path d="M22.8433 17.4629C24.0295 19.2354 23.6066 20.8879 22.9057 22.4868C22.7432 22.8577 22.5642 23.2287 22.3863 23.5979L22.3236 23.7279C22.1245 24.1413 21.9286 24.553 21.7554 24.9684C21.5619 25.4323 21.3983 25.8971 21.2916 26.367C21.5908 25.8598 21.9248 25.4226 22.2857 25.0361C22.4274 24.7597 22.5888 24.4807 22.7587 24.2011C22.9288 23.9212 23.1075 23.6405 23.2871 23.3585C23.6612 22.771 24.0392 22.1773 24.3514 21.5716C24.8109 20.6799 25.1038 19.803 25.0123 18.9571C24.932 18.2141 24.5523 17.4725 23.6728 16.7508C23.5078 17.0491 23.2142 17.2862 22.8433 17.4629Z" fill="#15447A"></path>
<path d="M24.6291 14.8391C25.4957 15.6088 26.4638 16.6562 26.8487 18.1376C27.133 19.2321 27.0946 20.5456 26.4896 22.1377C27.1038 21.7762 27.7185 21.3883 28.3133 20.9249C28.484 20.4618 28.5661 20.0298 28.5801 19.6259C28.6153 18.6076 28.2184 17.7398 27.6586 16.97C27.2167 16.3623 26.6835 15.8278 26.1846 15.3277C26.0461 15.1889 25.91 15.0525 25.7795 14.9182C25.5043 14.6348 25.2513 14.3576 25.0594 14.086L25.0299 14.0866C24.9539 14.289 24.8589 14.4819 24.7469 14.6624C24.7076 14.7256 24.668 14.7845 24.6291 14.8391Z" fill="#15447A"></path>
<path d="M25.4485 13.8054C25.3303 13.6301 25.2517 13.4704 25.2135 13.3222C25.2367 13.1098 25.2377 12.8954 25.2163 12.6804C25.1983 12.5008 25.1706 12.2697 25.1539 12.1341L25.2996 12.0242C25.3344 11.9978 25.3686 11.9714 25.4022 11.9449C25.4147 11.9835 25.4288 12.0231 25.4446 12.0635C25.5363 12.2992 25.6881 12.5791 25.9148 12.8977C26.3683 13.535 27.1285 14.3372 28.3333 15.2639C29.777 16.3743 30.2543 17.4802 30.2371 18.4606C30.2334 18.6706 30.207 18.8764 30.1617 19.0769C29.7906 19.5596 29.3989 19.9784 28.9935 20.3505C29.0439 20.1068 29.0719 19.8697 29.0799 19.6389C29.119 18.5078 28.6754 17.5551 28.0815 16.7385C27.6173 16.1001 27.0511 15.5329 26.5493 15.0301C26.4144 14.895 26.2842 14.7645 26.1619 14.6386C25.8688 14.3369 25.622 14.0628 25.4485 13.8054Z" fill="#15447A"></path>
<path d="M25.8315 11.5698C25.834 11.6481 25.8564 11.7658 25.9183 11.9247C25.9955 12.1231 26.1291 12.3731 26.3403 12.6698C26.7625 13.2632 27.4877 14.0337 28.665 14.9393C30.1065 16.048 30.6858 17.193 30.7342 18.2619C30.9125 17.9856 31.0761 17.7085 31.2256 17.4312C31.2182 17.2495 31.1975 17.0688 31.163 16.8894C30.9553 15.8098 30.2414 14.7497 28.8307 13.788C27.6237 12.9653 26.9365 12.1946 26.5384 11.6087C26.4129 11.4241 26.3167 11.2586 26.2422 11.1166C26.122 11.2685 25.9857 11.4199 25.8315 11.5698Z" fill="#15447A"></path>
<path d="M26.597 10.7323C26.5838 10.7034 26.5719 10.6764 26.5611 10.6514C26.7042 10.4071 26.8102 10.1639 26.8865 9.92573C27.0461 10.1279 27.2592 10.3682 27.5316 10.6392C28.0875 11.192 28.9 11.8824 30.0349 12.6523C31.33 13.5309 31.8524 14.6717 32.0074 15.6347C31.8957 15.967 31.7659 16.3011 31.6168 16.6359C31.3425 15.4977 30.5551 14.4118 29.1396 13.4469C27.9811 12.6572 27.3354 11.9274 26.9691 11.3883C26.7858 11.1186 26.6712 10.8948 26.597 10.7323Z" fill="#15447A"></path>
<path d="M27.0276 9.28113C27.1195 9.46136 27.3875 9.83586 27.9084 10.354C28.4417 10.8844 29.2307 11.556 30.3429 12.3106C31.3855 13.0178 31.9709 13.8789 32.2749 14.7052C32.457 13.9482 32.5494 13.2064 32.5682 12.494C32.2928 11.8824 31.5038 10.9397 29.787 10.2408C28.6626 9.78304 27.839 9.24079 27.2751 8.75727C27.1924 8.68636 27.1149 8.61638 27.0426 8.54781C27.0604 8.77674 27.0591 9.02318 27.0276 9.28113Z" fill="#15447A"></path>
<path d="M27.6265 8.4487C27.2178 8.09827 26.9724 7.79548 26.8551 7.60462C26.8046 7.44587 26.7447 7.28778 26.6758 7.1308C26.8091 7.0807 26.9363 7.02705 27.0577 6.97017C27.5084 7.30262 28.3282 7.81421 30.0119 8.39538C30.9425 8.7166 31.5132 9.20065 31.8427 9.73459C32.1363 10.2102 32.2452 10.7368 32.2317 11.2426C31.7293 10.7544 31.0041 10.2571 29.9994 9.84809C28.9275 9.4117 28.1508 8.89818 27.6265 8.4487Z" fill="#15447A"></path>
<path d="M26.4797 6.7317C27.9998 6.15934 28.6035 5.0903 28.619 4.13804C28.6354 3.12654 28.0085 2.3247 27.183 2.23372C26.8137 2.19302 26.4401 2.35509 25.8948 2.75672C25.6368 2.94677 25.3547 3.17897 25.0273 3.44857L24.9899 3.47937C24.7204 3.70121 24.4228 3.94561 24.0897 4.2058C24.2339 4.29965 24.3742 4.40552 24.515 4.51699C24.8548 4.03032 25.7648 3.53378 27.5505 3.63638C27.6883 3.6443 27.7926 3.74762 27.7835 3.86715C27.7743 3.98668 27.6552 4.07717 27.5175 4.06925C25.6653 3.96283 25.0436 4.53401 24.8945 4.8266C24.9173 4.84601 24.9399 4.8655 24.9623 4.88507C25.368 4.78054 25.8616 4.75922 26.3269 4.78224C26.8491 4.80807 27.3671 4.89146 27.7369 4.99841C27.8679 5.03629 27.9387 5.15913 27.895 5.27278C27.8514 5.38643 27.7098 5.44785 27.5788 5.40997C27.2583 5.31728 26.7851 5.23943 26.2984 5.21535C25.9625 5.19874 25.6347 5.20853 25.3545 5.25088C25.8204 5.71639 26.1991 6.21568 26.4797 6.7317Z" fill="#15447A"></path>
<path d="M24.6457 3.16468C24.3466 3.4109 24.0176 3.68103 23.6455 3.96857C23.5925 3.94695 23.5386 3.92746 23.4835 3.91034C23.4185 3.89016 23.3531 3.8734 23.2868 3.86011C23.3904 3.76928 23.4947 3.67235 23.5997 3.57198C23.7362 3.44157 23.874 3.30524 24.0145 3.16634C24.366 2.81869 24.7341 2.45467 25.1385 2.1258C25.3522 1.95199 25.5796 1.78679 25.8189 1.64311C26.8013 1.05346 28.0508 1.41373 28.8369 2.24727C30.1352 3.62385 29.6807 4.73314 29.2379 5.73214C29.7845 5.80176 30.3645 6.19549 30.8848 6.83333C30.524 6.64382 30.1492 6.50327 29.7853 6.40109C29.2217 6.24289 28.6762 6.17434 28.2338 6.15969C28.8353 5.55289 29.1079 4.82798 29.119 4.14415C29.1372 3.02391 28.4341 1.9343 27.246 1.80336C26.6457 1.7372 26.123 2.01959 25.5712 2.42601C25.3023 2.62406 25.0111 2.86384 24.6886 3.1294L24.6457 3.16468Z" fill="#15447A"></path>
<path d="M29.6313 6.81384C29.9949 6.9159 30.3646 7.0582 30.714 7.25203C31.3368 7.59753 31.76 8.20681 32.0024 8.87652C32.0569 9.02687 32.1081 9.18135 32.1559 9.33966C31.7555 8.78977 31.1248 8.31262 30.1968 7.99229C28.7167 7.48139 27.9428 7.03321 27.5067 6.72941C27.572 6.6895 27.6352 6.64852 27.6962 6.60657C28.096 6.56559 28.8398 6.59164 29.6313 6.81384Z" fill="#15447A"></path>
<path d="M21.8217 8.04929L22.6388 10.4972C22.6419 10.5065 22.645 10.5158 22.6481 10.525L22.6388 10.4972C22.4132 9.80952 22.4874 9.14556 22.5846 8.68572C22.9196 8.71511 23.164 8.69305 23.3944 8.64203C24.0021 8.50742 24.4074 8.04048 24.7934 7.59585C24.8508 7.52974 24.9077 7.46409 24.9649 7.40013C25.0433 7.3123 25.1353 7.22112 25.2448 7.12114C25.0684 7.14882 24.8959 7.17413 24.7267 7.19896C23.6803 7.35251 22.7592 7.48766 21.8217 8.04929Z" fill="#15447A"></path>
<path fill-rule="evenodd" clip-rule="evenodd" d="M4.02858 33.1593C3.89641 32.8313 3.83033 32.4716 3.83033 32.08C3.83033 31.6884 3.89641 31.331 4.02858 31.0079C4.16074 30.6799 4.34677 30.3985 4.58658 30.1635C4.83136 29.9237 5.11769 29.7401 5.44567 29.6128C5.77861 29.4806 6.1457 29.4146 6.54709 29.4146C6.94848 29.4146 7.3132 29.4806 7.64118 29.6128C7.97404 29.7401 8.26037 29.9237 8.50026 30.1635C8.74504 30.3985 8.93351 30.6799 9.06568 31.0079C9.19785 31.331 9.26393 31.6884 9.26393 32.08C9.26393 32.4716 9.19785 32.8313 9.06568 33.1593C8.93351 33.4824 8.74504 33.7638 8.50026 34.0037C8.26037 34.2387 7.97404 34.4222 7.64118 34.5544C7.3132 34.6817 6.94848 34.7453 6.54709 34.7453C6.1457 34.7453 5.77861 34.6817 5.44567 34.5544C5.11769 34.4222 4.83136 34.2387 4.58658 34.0037C4.34677 33.7638 4.16074 33.4824 4.02858 33.1593ZM8.2506 32.08C8.2506 31.7373 8.17718 31.4387 8.03034 31.1841C7.8884 30.9247 7.69015 30.7216 7.43559 30.5747C7.18104 30.4278 6.88484 30.3544 6.54709 30.3544C6.21423 30.3544 5.91811 30.4278 5.65867 30.5747C5.40411 30.7216 5.20341 30.9247 5.0565 31.1841C4.91455 31.4387 4.84358 31.7373 4.84358 32.08C4.84358 32.4177 4.91455 32.7163 5.0565 32.9757C5.20341 33.2352 5.40411 33.4383 5.65867 33.5852C5.91811 33.7321 6.21423 33.8055 6.54709 33.8055C6.88484 33.8055 7.18104 33.7321 7.43559 33.5852C7.69015 33.4383 7.8884 33.2352 8.03034 32.9757C8.17718 32.7163 8.2506 32.4177 8.2506 32.08Z" fill="#15447A"></path>
<path d="M2.71676 33.7027H1.22625V30.4131C1.22625 30.1831 1.24826 30.0044 1.29234 29.8771C1.34123 29.7499 1.40731 29.6593 1.49059 29.6055V29.5467H0.0220007V29.6055C0.0478312 29.6261 0.0715431 29.6513 0.0931364 29.6811C0.105848 29.6985 0.117745 29.7176 0.128989 29.7381C0.152946 29.7822 0.173643 29.8334 0.190917 29.8918C0.230111 30.0191 0.249667 30.1929 0.249667 30.4131V33.7467C0.249667 33.967 0.227585 34.1432 0.183584 34.2754C0.139501 34.4027 0.0783063 34.4957 0 34.5544V34.6132H2.9591C3.07171 34.6132 3.18187 34.6156 3.28952 34.6205C3.35527 34.6263 3.41679 34.6345 3.47424 34.6452C3.49551 34.6492 3.51612 34.6535 3.53625 34.6581C3.55483 34.6625 3.573 34.667 3.5906 34.6719V33.4604H3.53185C3.4731 33.5387 3.37768 33.5999 3.24551 33.644C3.11326 33.6831 2.9371 33.7027 2.71676 33.7027Z" fill="#15447A"></path>
<path d="M14.0379 30.8023H14.0967V29.51C14.0686 29.5212 14.039 29.5303 14.0079 29.5373C13.958 29.5485 13.9044 29.5541 13.847 29.5541C13.8193 29.5541 13.7859 29.5516 13.7468 29.5467C13.6685 29.5369 13.5673 29.5174 13.4432 29.488C13.262 29.439 13.0418 29.4146 12.7823 29.4146C12.2047 29.4146 11.698 29.5272 11.2624 29.7523C10.8316 29.9726 10.4963 30.2834 10.2564 30.6848C10.0166 31.0813 9.89666 31.5464 9.89666 32.08C9.89666 32.4667 9.96274 32.824 10.0949 33.152C10.2271 33.4751 10.4155 33.7565 10.6602 33.9964C10.905 34.2363 11.1914 34.4222 11.5194 34.5544C11.8523 34.6817 12.2169 34.7453 12.6134 34.7453C13.1323 34.7453 13.5802 34.6377 13.9572 34.4222C14.334 34.2069 14.6229 33.9083 14.8236 33.5265C15.0292 33.1447 15.132 32.7041 15.132 32.2048C15.132 32.1069 15.1442 32.0212 15.1687 31.9478C15.1981 31.8744 15.2372 31.8132 15.2862 31.7642V31.7055H12.9292C12.8884 31.7055 12.8473 31.7047 12.8058 31.7034C12.7664 31.7021 12.7266 31.7001 12.6865 31.6975L12.6661 31.6961L12.6227 31.6928L12.5988 31.6908C12.4861 31.681 12.3858 31.6663 12.2977 31.6467V32.8436H12.3564C12.4152 32.7604 12.5131 32.6943 12.6502 32.6453C12.7332 32.6126 12.8316 32.5899 12.9451 32.577C13.019 32.5687 13.0994 32.5646 13.1862 32.5646H14.0889C14.0827 32.7947 14.0193 33.0028 13.8984 33.1887C13.7711 33.3796 13.5949 33.5314 13.3698 33.644C13.1494 33.7516 12.8974 33.8055 12.6134 33.8055C12.2806 33.8055 11.9844 33.7321 11.725 33.5852C11.4704 33.4383 11.2697 33.2352 11.1228 32.9757C10.9809 32.7163 10.9099 32.4177 10.9099 32.08C10.9099 31.7324 10.9882 31.4289 11.1449 31.1695C11.3015 30.91 11.5219 30.7093 11.8057 30.5674C12.0945 30.4254 12.4298 30.3544 12.8117 30.3544C12.9487 30.3544 13.076 30.3642 13.1935 30.3838C13.3159 30.3985 13.4285 30.4254 13.5313 30.4646C13.639 30.4989 13.7368 30.5502 13.825 30.6187C13.918 30.6873 13.989 30.7484 14.0379 30.8023Z" fill="#15447A"></path>
<path fill-rule="evenodd" clip-rule="evenodd" d="M15.9174 33.1593C15.7853 32.8313 15.7192 32.4716 15.7192 32.08C15.7192 31.6884 15.7853 31.331 15.9174 31.0079C16.0496 30.6799 16.2356 30.3985 16.4754 30.1635C16.7202 29.9237 17.0066 29.7401 17.3345 29.6128C17.6675 29.4806 18.0346 29.4146 18.436 29.4146C18.8373 29.4146 19.2021 29.4806 19.53 29.6128C19.8629 29.7401 20.1492 29.9237 20.3891 30.1635C20.6339 30.3985 20.8224 30.6799 20.9545 31.0079C21.0867 31.331 21.1528 31.6884 21.1528 32.08C21.1528 32.4716 21.0867 32.8313 20.9545 33.1593C20.8224 33.4824 20.6339 33.7638 20.3891 34.0037C20.1492 34.2387 19.8629 34.4222 19.53 34.5544C19.2021 34.6817 18.8373 34.7453 18.436 34.7453C18.0346 34.7453 17.6675 34.6817 17.3345 34.5544C17.0066 34.4222 16.7202 34.2387 16.4754 34.0037C16.2356 33.7638 16.0496 33.4824 15.9174 33.1593ZM20.1395 32.08C20.1395 31.7373 20.066 31.4387 19.9192 31.1841C19.7773 30.9247 19.579 30.7216 19.3245 30.5747C19.0699 30.4278 18.7737 30.3544 18.436 30.3544C18.1031 30.3544 17.807 30.4278 17.5475 30.5747C17.293 30.7216 17.0923 30.9247 16.9454 31.1841C16.8034 31.4387 16.7324 31.7373 16.7324 32.08C16.7324 32.4177 16.8034 32.7163 16.9454 32.9757C17.0923 33.2352 17.293 33.4383 17.5475 33.5852C17.807 33.7321 18.1031 33.8055 18.436 33.8055C18.7737 33.8055 19.0699 33.7321 19.3245 33.5852C19.579 33.4383 19.7773 33.2352 19.9192 32.9757C20.066 32.7163 20.1395 32.4177 20.1395 32.08Z" fill="#15447A"></path>
<path d="M21.925 29.8918C21.9642 30.0191 21.9838 30.1929 21.9838 30.4131V33.7467C21.9838 33.967 21.9642 34.1432 21.925 34.2754C21.8858 34.4027 21.8295 34.4957 21.7561 34.5544V34.6132H23.1879V34.5544C23.1145 34.4957 23.0582 34.4027 23.0191 34.2754C23.0035 34.2226 22.9909 34.1628 22.9815 34.096C22.9674 33.9954 22.9604 33.879 22.9604 33.7467V30.4131C22.9604 30.1929 22.9799 30.0191 23.0191 29.8918C23.0582 29.7596 23.1145 29.6642 23.1879 29.6055V29.5467H21.7561V29.6055C21.8295 29.6642 21.8858 29.7596 21.925 29.8918Z" fill="#15447A"></path>
<path fill-rule="evenodd" clip-rule="evenodd" d="M24.9681 33.7467C24.9681 33.972 24.9901 34.1506 25.0342 34.2827C25.0498 34.3232 25.067 34.3599 25.086 34.3929C25.0968 34.4116 25.108 34.4291 25.1199 34.4454C25.1321 34.4622 25.1449 34.4777 25.1582 34.4919C25.1812 34.5164 25.206 34.5373 25.2325 34.5544V34.6132H23.7639V34.5544C23.7954 34.5292 23.8238 34.4977 23.849 34.4598C23.8556 34.4499 23.862 34.4396 23.8681 34.4288C23.8762 34.4147 23.8838 34.3999 23.8912 34.3844C23.8974 34.3712 23.9034 34.3573 23.9091 34.343C23.9176 34.3216 23.9255 34.2991 23.9328 34.2754C23.972 34.1432 23.9915 33.967 23.9915 33.7467V30.4131C23.9915 30.1929 23.9695 30.0191 23.9255 29.8918C23.8814 29.7596 23.8202 29.6642 23.7419 29.6055V29.5467H25.5702C26.1967 29.5467 26.6863 29.7082 27.0387 30.0313C27.3961 30.3544 27.5747 30.7999 27.5747 31.3677C27.5747 31.7447 27.494 32.0702 27.3325 32.3443C27.1709 32.6135 26.9409 32.8216 26.6422 32.9684C26.3437 33.1152 25.9863 33.1887 25.5702 33.1887H24.9681V33.7467ZM25.5261 32.2929H24.9681V30.4426H25.5261C25.8639 30.4426 26.1209 30.5209 26.2971 30.6775C26.4734 30.8342 26.5615 31.0642 26.5615 31.3677C26.5615 31.6663 26.4734 31.8964 26.2971 32.0579C26.1209 32.2146 25.8639 32.2929 25.5261 32.2929Z" fill="#15447A"></path>
<path d="M29.4873 30.237C29.3062 30.4914 29.1275 30.8366 28.9513 31.2722L28.3859 32.6601C28.2733 32.9391 28.1681 33.152 28.0701 33.2988C27.9772 33.4457 27.8841 33.546 27.7911 33.5999C27.7031 33.6538 27.6051 33.6807 27.4974 33.6807C27.4142 33.6807 27.3359 33.666 27.2625 33.6366C27.2524 33.6318 27.2425 33.627 27.2328 33.6217C27.2257 33.618 27.2187 33.6141 27.2118 33.6101L27.1953 33.6001C27.1495 33.5715 27.1082 33.5371 27.0716 33.4971H27.0128V34.5985C27.0667 34.6132 27.1303 34.6254 27.2037 34.6352C27.246 34.6405 27.2904 34.6444 27.3369 34.6468C27.3518 34.6475 27.3669 34.6482 27.3823 34.6487C27.4078 34.6495 27.434 34.6499 27.4607 34.6499C27.6908 34.6499 27.8964 34.618 28.0775 34.5544C28.2635 34.4908 28.43 34.3905 28.5768 34.2534C28.7237 34.1115 28.8632 33.9303 28.9953 33.7101C29.1275 33.4897 29.2572 33.223 29.3845 32.9097L29.9499 31.5219C30.0625 31.2429 30.1677 31.03 30.2657 30.8831C30.3684 30.7313 30.4639 30.6286 30.552 30.5747C30.6401 30.516 30.7258 30.4866 30.809 30.4866C30.8873 30.4866 30.9583 30.5037 31.0219 30.538C31.0856 30.5674 31.1345 30.6016 31.1687 30.6408H31.2275V29.488C31.1982 29.4977 31.1687 29.5051 31.1394 29.51C31.1101 29.5149 31.0807 29.5174 31.0513 29.5174H30.9558C30.9265 29.5124 30.8775 29.51 30.809 29.51C30.5398 29.51 30.2974 29.5663 30.0821 29.6789C29.8716 29.7915 29.6733 29.9775 29.4873 30.237Z" fill="#15447A"></path>
<path d="M31.7061 30.4131C31.7061 30.3093 31.7017 30.2159 31.693 30.1328C31.6832 30.0395 31.668 29.9591 31.6473 29.8918C31.6082 29.7596 31.5519 29.6642 31.4785 29.6055V29.5467H32.9103V29.6055C32.8368 29.6642 32.7806 29.7596 32.7414 29.8918C32.7192 29.9639 32.7033 30.0509 32.6937 30.1528C32.6863 30.2309 32.6826 30.3176 32.6826 30.4131V32.7701C32.6826 33.1079 32.7561 33.3649 32.9029 33.5412C33.0498 33.7174 33.2652 33.8055 33.5491 33.8055C33.833 33.8055 34.0484 33.7174 34.1952 33.5412C34.3421 33.3649 34.4155 33.1079 34.4155 32.7701V30.4131C34.4155 30.1929 34.3959 30.0191 34.3568 29.8918C34.3176 29.7596 34.2613 29.6642 34.1879 29.6055V29.5467H35.6197V29.6055C35.6071 29.6156 35.595 29.6267 35.5835 29.639C35.5664 29.657 35.5505 29.6773 35.5356 29.7001C35.5313 29.7065 35.5273 29.713 35.5232 29.7198L35.5153 29.7336C35.5069 29.7489 35.4988 29.7649 35.4912 29.7819C35.4854 29.7948 35.4797 29.8083 35.4744 29.8222C35.466 29.8441 35.4581 29.8674 35.4508 29.8918C35.4117 30.0191 35.3921 30.1929 35.3921 30.4131V32.8142C35.3921 33.2303 35.3211 33.5828 35.1791 33.8716C35.0421 34.1604 34.8365 34.3782 34.5624 34.5251C34.2883 34.6719 33.9505 34.7453 33.5491 34.7453C33.1477 34.7453 32.8099 34.6719 32.5358 34.5251C32.2617 34.3782 32.0536 34.1604 31.9116 33.8716C31.7746 33.5828 31.7061 33.2303 31.7061 32.8142V30.4131Z" fill="#15447A"></path>
<path d="M36.3091 29.9212C36.3531 30.0681 36.3752 30.2516 36.3752 30.4719V33.7467C36.3752 33.967 36.3556 34.1432 36.3164 34.2754C36.2772 34.4027 36.2209 34.4957 36.1475 34.5544V34.6132H37.5793V34.5544C37.5059 34.4957 37.4496 34.4027 37.4105 34.2754C37.3713 34.1432 37.3518 33.967 37.3518 33.7467V31.3L38.8129 32.6013H38.8423L40.2962 31.2851V33.7467C40.2962 33.967 40.2766 34.1432 40.2374 34.2754C40.2184 34.3373 40.1953 34.391 40.1682 34.4367C40.1508 34.4659 40.1318 34.4918 40.1111 34.5145C40.0976 34.5292 40.0834 34.5425 40.0685 34.5544V34.6132H41.5004V34.5544C41.4458 34.5107 41.4006 34.4482 41.3649 34.3665C41.3526 34.3384 41.3415 34.308 41.3314 34.2754C41.2923 34.1432 41.2728 33.967 41.2728 33.7467V30.4719C41.2728 30.2516 41.2948 30.0681 41.3389 29.9212C41.3644 29.8445 41.3939 29.7791 41.4275 29.7252C41.4582 29.6758 41.4923 29.6359 41.5297 29.6055V29.5467H40.2227V29.5908C40.2913 29.6838 40.3133 29.7964 40.2889 29.9286C40.2692 30.0558 40.1934 30.1807 40.0612 30.3031L38.8439 31.4338L37.5353 30.259C37.4178 30.1512 37.3518 30.0362 37.337 29.9139C37.3223 29.7915 37.3518 29.6838 37.4252 29.5908V29.5467H36.1182V29.6055C36.1641 29.6406 36.2041 29.6884 36.238 29.7489C36.2657 29.7979 36.2894 29.8554 36.3091 29.9212Z" fill="#15447A"></path>
<path fill-rule="evenodd" clip-rule="evenodd" d="M23.49 38.8019C23.49 39.1868 23.5567 39.4827 23.6902 39.6896C23.8238 39.8966 24.014 40 24.261 40C24.5124 40 24.7038 39.8966 24.8351 39.6896C24.9685 39.4827 25.0353 39.1868 25.0353 38.8019C25.0353 38.4169 24.9685 38.121 24.8351 37.914C24.7038 37.7071 24.5124 37.6036 24.261 37.6036C24.014 37.6036 23.8238 37.7071 23.6902 37.914C23.5567 38.121 23.49 38.4169 23.49 38.8019ZM24.7449 38.8019C24.7449 39.1067 24.7038 39.3381 24.6214 39.496C24.5413 39.654 24.4212 39.733 24.261 39.733C24.103 39.733 23.9828 39.654 23.9005 39.496C23.8182 39.3381 23.777 39.1067 23.777 38.8019C23.777 38.497 23.8182 38.2656 23.9005 38.1076C23.9828 37.9496 24.103 37.8707 24.261 37.8707C24.4212 37.8707 24.5413 37.9496 24.6214 38.1076C24.7038 38.2656 24.7449 38.497 24.7449 38.8019Z" fill="#15447A"></path>
<path d="M22.8257 39.6896H22.1943L22.5854 39.1589C22.73 38.9631 22.8335 38.794 22.8957 38.6516C22.9226 38.5922 22.944 38.5343 22.9596 38.478C22.9815 38.3994 22.9925 38.3237 22.9925 38.2511C22.9925 38.0553 22.9258 37.9006 22.7923 37.7872C22.6588 37.6715 22.4775 37.6136 22.2483 37.6136L22.2204 37.6139C22.1951 37.6143 22.1711 37.6153 22.1485 37.6168C22.1181 37.6189 22.0903 37.622 22.0648 37.6261C22.0568 37.6274 22.049 37.6288 22.0414 37.6304C21.9857 37.6414 21.9401 37.6526 21.9045 37.6637C21.8712 37.6726 21.8422 37.677 21.8177 37.677H21.781C21.7699 37.6748 21.7532 37.6726 21.7309 37.6704V38.0876H21.7543C21.7699 38.0631 21.7877 38.0409 21.8077 38.0208C21.8299 38.0008 21.8555 37.9819 21.8844 37.9641C21.9003 37.9542 21.9183 37.9447 21.9386 37.9358C21.9514 37.9301 21.965 37.9245 21.9795 37.9191C21.9937 37.9139 22.0088 37.9089 22.0247 37.904C22.0825 37.8862 22.1448 37.8773 22.2116 37.8773C22.3606 37.8773 22.4785 37.914 22.5653 37.9874C22.5918 38.0099 22.6143 38.0348 22.6327 38.0622C22.64 38.0731 22.6466 38.0843 22.6527 38.096C22.6563 38.103 22.6598 38.1103 22.663 38.1177C22.6672 38.1274 22.6709 38.1373 22.6743 38.1474C22.6799 38.1642 22.6844 38.1817 22.6878 38.1998C22.6929 38.2276 22.6955 38.257 22.6955 38.2878C22.6955 38.3546 22.68 38.4302 22.6488 38.5148C22.6176 38.5971 22.5676 38.6939 22.4986 38.8052C22.4319 38.9164 22.3439 39.0465 22.2349 39.1957L21.6976 39.9299V39.9533H22.9225C22.9648 39.9533 23.0059 39.9544 23.046 39.9566C23.0665 39.9589 23.0858 39.9618 23.104 39.9652C23.1214 39.9685 23.1376 39.9723 23.1527 39.9767V39.5562H23.1261C23.1038 39.5984 23.0682 39.6318 23.0193 39.6562C22.9725 39.6785 22.908 39.6896 22.8257 39.6896Z" fill="#15447A"></path>
<path d="M14.3042 39.6829H13.4765V38.7851H13.9037C13.9771 38.7851 14.0317 38.7929 14.0673 38.8085C14.0862 38.8155 14.1025 38.8245 14.1164 38.8353C14.1232 38.8407 14.1295 38.8465 14.1351 38.8528L14.1396 38.8581L14.1418 38.8608L14.1439 38.8637L14.1474 38.8686H14.1707V38.4347H14.1474C14.1296 38.4591 14.1029 38.4792 14.0673 38.4947C14.0599 38.4979 14.0518 38.5008 14.0429 38.5033C14.0084 38.5132 13.9621 38.5181 13.9037 38.5181H13.4765V37.9207H14.2842C14.3666 37.9207 14.4311 37.9318 14.4778 37.9541C14.5267 37.9763 14.5624 38.0097 14.5846 38.0542H14.6113V37.627C14.5943 37.6307 14.576 37.6339 14.5563 37.637C14.5399 37.6394 14.5227 37.6417 14.5045 37.6437C14.4877 37.6456 14.4707 37.6471 14.4535 37.6481C14.4396 37.649 14.4255 37.6496 14.4114 37.6499C14.4013 37.6502 14.3912 37.6503 14.381 37.6503H13.0727V37.677C13.1083 37.6971 13.1361 37.7316 13.1561 37.7805C13.1783 37.8295 13.1895 37.8984 13.1895 37.9874V39.6162C13.1895 39.7052 13.1783 39.7742 13.1561 39.8231C13.1458 39.8484 13.1334 39.8698 13.1189 39.8873C13.1053 39.9038 13.0899 39.9169 13.0727 39.9266V39.9533H14.401C14.4433 39.9533 14.4845 39.9544 14.5245 39.9566C14.5668 39.961 14.6024 39.9677 14.6313 39.9767V39.5495H14.608C14.5857 39.5918 14.5501 39.6251 14.5012 39.6495C14.484 39.6574 14.4647 39.6638 14.4433 39.6689C14.404 39.6783 14.3576 39.6829 14.3042 39.6829Z" fill="#15447A"></path>
<path d="M15.9158 38.0242H15.8924C15.8769 38.0041 15.8568 37.9864 15.8324 37.9708C15.8101 37.9529 15.7845 37.9385 15.7556 37.9274C15.7356 37.9207 15.7122 37.9151 15.6855 37.9107C15.6718 37.9072 15.6571 37.9047 15.6415 37.903C15.6269 37.9015 15.6115 37.9006 15.5954 37.9006C15.4819 37.9006 15.3906 37.9296 15.3217 37.9874C15.2527 38.0453 15.2182 38.1187 15.2182 38.2078L15.2185 38.2191L15.2189 38.2288C15.2194 38.238 15.2202 38.2469 15.2214 38.2558C15.2229 38.2671 15.2251 38.278 15.2278 38.2887C15.23 38.2975 15.2325 38.3061 15.2354 38.3146C15.2448 38.3417 15.258 38.3673 15.275 38.3913C15.3128 38.4425 15.3784 38.4992 15.4719 38.5616L15.6454 38.675C15.6709 38.6918 15.6953 38.7088 15.7184 38.7259C15.7352 38.7384 15.7514 38.7509 15.7669 38.7636C15.7779 38.7724 15.7884 38.7813 15.7986 38.7902C15.8307 38.8181 15.8598 38.8465 15.8857 38.8753C15.9503 38.942 15.9981 39.0132 16.0292 39.0888C16.0446 39.126 16.0561 39.165 16.0639 39.2059C16.072 39.2483 16.076 39.2927 16.076 39.3392C16.076 39.5261 16.0081 39.6785 15.8724 39.7964C15.7389 39.9122 15.5476 39.97 15.2983 39.97C15.2338 39.97 15.1682 39.9655 15.1015 39.9566C15.0369 39.95 14.9835 39.9421 14.9413 39.9333V39.5595H14.9646L15.018 39.6129C15.0358 39.6262 15.0558 39.6384 15.0781 39.6495C15.1048 39.6652 15.1381 39.6785 15.1782 39.6896C15.1965 39.6947 15.2156 39.6986 15.2357 39.7014C15.2597 39.7047 15.285 39.7063 15.3117 39.7063C15.4518 39.7063 15.5631 39.6729 15.6454 39.6062C15.7277 39.5372 15.769 39.4482 15.769 39.3392C15.769 39.2524 15.7422 39.1756 15.6889 39.1089C15.6846 39.1031 15.68 39.0973 15.6752 39.0914C15.6705 39.0857 15.6655 39.0798 15.6603 39.0739C15.6413 39.0526 15.619 39.0307 15.5935 39.0083C15.5486 38.9688 15.4936 38.9278 15.4285 38.8853L15.2583 38.7684C15.1869 38.7218 15.127 38.6735 15.0783 38.6238C15.0435 38.5882 15.0145 38.5519 14.9913 38.5148C14.9607 38.4639 14.9389 38.4089 14.9259 38.3501C14.9187 38.3177 14.9141 38.2841 14.9122 38.2492C14.9115 38.2367 14.9112 38.224 14.9112 38.2111C14.9112 38.0375 14.9746 37.8984 15.1015 37.7939C15.2304 37.6871 15.4073 37.6337 15.6321 37.6337C15.659 37.6337 15.6831 37.6345 15.7044 37.6361C15.7116 37.6367 15.7185 37.6374 15.7251 37.6381C15.7311 37.6387 15.7368 37.6396 15.7422 37.6404L15.7624 37.6417L15.7782 37.6425L15.7915 37.6431C15.8025 37.6435 15.8129 37.6437 15.8223 37.6437C15.8323 37.6437 15.8434 37.6428 15.8555 37.6409C15.8733 37.6383 15.8934 37.6336 15.9158 37.627V38.0242Z" fill="#15447A"></path>
<path d="M16.5236 37.9207H16.9008V39.6362C16.9008 39.7207 16.8908 39.7853 16.8707 39.8298C16.8614 39.8529 16.8498 39.873 16.8357 39.8902C16.8227 39.906 16.8077 39.9192 16.7906 39.9299V39.9533H17.2979V39.9299C17.2623 39.9077 17.2345 39.8743 17.2145 39.8298C17.2051 39.8063 17.1982 39.7773 17.1938 39.7427L17.1919 39.7251L17.1901 39.7056C17.1898 39.7018 17.1897 39.6981 17.1895 39.6943L17.189 39.6873L17.1887 39.6805L17.1883 39.6684L17.1879 39.6493L17.1878 39.6362V37.9207H17.565C17.6473 37.9207 17.7118 37.9318 17.7585 37.9541C17.7685 37.9587 17.778 37.9636 17.7868 37.9691C17.7996 37.9769 17.8113 37.9858 17.8218 37.9956C17.8397 38.0124 17.8542 38.0319 17.8653 38.0542H17.892V37.627C17.8608 37.6337 17.8252 37.6392 17.7852 37.6437C17.7451 37.6481 17.704 37.6503 17.6617 37.6503H16.4268C16.3868 37.6503 16.3456 37.6481 16.3033 37.6437C16.2633 37.6392 16.2276 37.6337 16.1965 37.627V38.0542H16.2232C16.2373 38.026 16.2563 38.0022 16.2803 37.983C16.2941 37.9719 16.3095 37.9622 16.3267 37.9541C16.3756 37.9318 16.4413 37.9207 16.5236 37.9207Z" fill="#15447A"></path>
<path fill-rule="evenodd" clip-rule="evenodd" d="M18.8424 37.6503C19.1116 37.6503 19.342 37.6959 19.5333 37.7872C19.7269 37.8784 19.8749 38.0108 19.9772 38.1844C20.0818 38.3557 20.1341 38.5616 20.1341 38.8019C20.1341 39.0421 20.0818 39.249 19.9772 39.4226C19.8749 39.594 19.7269 39.7252 19.5333 39.8164C19.342 39.9077 19.1116 39.9533 18.8424 39.9533H18.1182V39.9266C18.1538 39.9065 18.1816 39.8721 18.2016 39.8231C18.2238 39.7742 18.235 39.7052 18.235 39.6162V37.9874C18.235 37.9575 18.2338 37.9298 18.2313 37.9044C18.2262 37.8543 18.2164 37.813 18.2016 37.7805L18.1971 37.77L18.1934 37.7621L18.1912 37.7576L18.1855 37.747C18.1837 37.7438 18.1818 37.7407 18.1798 37.7377C18.1628 37.7109 18.1423 37.6907 18.1182 37.677V37.6503H18.8424ZM19.8336 38.8019C19.8336 38.6238 19.7948 38.4692 19.7169 38.3379C19.6787 38.2725 19.6329 38.2146 19.5793 38.1642C19.5234 38.1116 19.4591 38.0672 19.3865 38.0308C19.2462 37.9574 19.0783 37.9207 18.8825 37.9207H18.522V39.6829H18.8825C19.0783 39.6829 19.2462 39.6473 19.3865 39.5761C19.5288 39.5027 19.639 39.4004 19.7169 39.2691C19.7948 39.1356 19.8336 38.9798 19.8336 38.8019Z" fill="#15447A"></path>
<path d="M20.3208 39.7797C20.3208 39.8122 20.3268 39.8418 20.3387 39.8687C20.3481 39.8897 20.361 39.9091 20.3776 39.9266C20.4176 39.9667 20.4678 39.9866 20.5278 39.9866C20.5857 39.9866 20.6335 39.9667 20.6713 39.9266C20.7114 39.8866 20.7314 39.8376 20.7314 39.7797C20.7314 39.7241 20.7114 39.6763 20.6713 39.6362C20.6335 39.5962 20.5857 39.5761 20.5278 39.5761C20.4678 39.5761 20.4176 39.5962 20.3776 39.6362C20.3397 39.6763 20.3208 39.7241 20.3208 39.7797Z" fill="#15447A"></path>
<path d="M26.1615 39.6362C26.1615 39.7207 26.1715 39.7853 26.1915 39.8298C26.2138 39.8743 26.2427 39.9077 26.2783 39.9299V39.9533H25.7543V39.9299C25.7778 39.9161 25.798 39.8979 25.8146 39.8754C25.8247 39.8618 25.8335 39.8466 25.8411 39.8298C25.8633 39.7853 25.8745 39.7207 25.8745 39.6362V38.0242L25.3672 38.2678H25.3404V37.9908L26.1348 37.627H26.1615V39.6362Z" fill="#15447A"></path>
<path fill-rule="evenodd" clip-rule="evenodd" d="M27.672 39.0221L27.0913 39.9299V39.9533H27.4117L28.0158 38.962C28.0937 38.8352 28.1493 38.7228 28.1827 38.6249C28.1978 38.5796 28.2094 38.5346 28.2177 38.4898C28.2277 38.4355 28.2327 38.3815 28.2327 38.3279C28.2327 38.1855 28.1994 38.0598 28.1326 37.9507C28.0681 37.8417 27.978 37.7571 27.8623 37.6971C27.8026 37.6649 27.7383 37.641 27.6697 37.6255C27.6054 37.6109 27.5372 37.6036 27.465 37.6036C27.3879 37.6036 27.3153 37.612 27.2473 37.6288C27.1821 37.6449 27.1212 37.6688 27.0646 37.7004C27.001 37.7346 26.9449 37.7765 26.8962 37.8261C26.8561 37.8669 26.821 37.9129 26.7909 37.9641C26.7241 38.0753 26.6908 38.2044 26.6908 38.3512C26.6908 38.3955 26.694 38.4383 26.7003 38.4795C26.7049 38.5088 26.7111 38.5373 26.7188 38.5651C26.7342 38.6202 26.7561 38.6725 26.7842 38.7218C26.8465 38.8308 26.9322 38.9164 27.0412 38.9788C27.1503 39.041 27.2737 39.0721 27.4117 39.0721C27.5029 39.0721 27.5897 39.0555 27.672 39.0221ZM27.9491 38.3412C27.9491 38.3774 27.9459 38.412 27.9395 38.4451C27.9295 38.4977 27.9115 38.5465 27.8856 38.5915C27.8434 38.665 27.7855 38.7228 27.7121 38.7651C27.6386 38.8052 27.5541 38.8252 27.4584 38.8252C27.3627 38.8252 27.2793 38.8052 27.2081 38.7651C27.1369 38.7251 27.0801 38.6694 27.0379 38.5982C26.9978 38.5248 26.9778 38.4425 26.9778 38.3512C26.9778 38.2556 26.9978 38.1721 27.0379 38.1009C27.0801 38.0297 27.138 37.9741 27.2115 37.934C27.2849 37.8918 27.3694 37.8707 27.465 37.8707C27.5585 37.8707 27.6409 37.8907 27.7121 37.9307C27.7855 37.9708 27.8434 38.0264 27.8856 38.0976C27.906 38.1309 27.9215 38.1671 27.9321 38.2062C27.9434 38.2479 27.9491 38.2929 27.9491 38.3412Z" fill="#15447A"></path>
<path d="M42.8084 29.0874C42.8084 29.3298 42.6119 29.5263 42.3695 29.5263C42.1271 29.5263 41.9307 29.3298 41.9307 29.0874C41.9307 28.845 42.1271 28.6486 42.3695 28.6486C42.6119 28.6486 42.8084 28.845 42.8084 29.0874Z" fill="#15447A"></path>
</svg>